<?xml version="1.0" encoding="UTF-8"?>
<svg id="Layer_1" xmlns="http://www.w3.org/2000/svg" viewBox="0 0 979.89 979.89">
  <defs>
    <style>
      .cls-1 {
        fill: #f6d90b;
      }
    </style>
  </defs>
  <circle class="cls-1" cx="489.94" cy="489.94" r="383.69"/>
  <polygon class="cls-1" points="489.94 0 446.71 74.88 533.18 74.88 489.94 0"/>
  <polygon class="cls-1" points="338.54 23.98 320.57 108.55 402.8 81.83 338.54 23.98"/>
  <polygon class="cls-1" points="201.96 93.57 211 179.56 280.95 128.74 201.96 93.57"/>
  <polygon class="cls-1" points="93.57 201.96 128.74 280.95 179.56 211 93.57 201.96"/>
  <polygon class="cls-1" points="23.98 338.54 81.83 402.8 108.55 320.57 23.98 338.54"/>
  <polygon class="cls-1" points="0 489.94 74.88 533.18 74.88 446.71 0 489.94"/>
  <polygon class="cls-1" points="23.98 641.35 108.55 659.32 81.83 577.09 23.98 641.35"/>
  <polygon class="cls-1" points="93.57 777.93 179.56 768.89 128.74 698.94 93.57 777.93"/>
  <polygon class="cls-1" points="201.96 886.32 280.95 851.15 211 800.33 201.96 886.32"/>
  <polygon class="cls-1" points="338.54 955.91 402.8 898.05 320.57 871.33 338.54 955.91"/>
  <polygon class="cls-1" points="489.94 979.89 533.18 905.01 446.71 905.01 489.94 979.89"/>
  <polygon class="cls-1" points="641.35 955.91 659.32 871.33 577.09 898.05 641.35 955.91"/>
  <polygon class="cls-1" points="777.93 886.32 768.89 800.33 698.94 851.15 777.93 886.32"/>
  <polygon class="cls-1" points="886.32 777.93 851.15 698.94 800.33 768.89 886.32 777.93"/>
  <polygon class="cls-1" points="955.91 641.35 898.05 577.09 871.33 659.32 955.91 641.35"/>
  <polygon class="cls-1" points="979.89 489.94 905.01 446.71 905.01 533.18 979.89 489.94"/>
  <polygon class="cls-1" points="955.91 338.54 871.33 320.57 898.05 402.8 955.91 338.54"/>
  <polygon class="cls-1" points="886.32 201.96 800.33 211 851.15 280.95 886.32 201.96"/>
  <polygon class="cls-1" points="777.93 93.57 698.94 128.74 768.89 179.56 777.93 93.57"/>
  <polygon class="cls-1" points="641.35 23.98 577.09 81.83 659.32 108.55 641.35 23.98"/>
</svg>