<?xml version="1.0" encoding="UTF-8" standalone="no"?>
<!DOCTYPE svg PUBLIC "-//W3C//DTD SVG 1.1//EN" "http://www.w3.org/Graphics/SVG/1.1/DTD/svg11.dtd">
<svg width="100%" height="100%" viewBox="0 0 400 300" version="1.1" xmlns="http://www.w3.org/2000/svg"
     xml:space="preserve"
     style="fill-rule:evenodd;clip-rule:evenodd;stroke-linejoin:round;stroke-miterlimit:2;">
    <g transform="matrix(1.02605,-0.153916,0.177313,1.18202,-22.3347,35.9528)">
        <ellipse cx="197.141" cy="121.792" rx="190.216" ry="59.276" style="fill:rgb(255,0,0);"/>
    </g>
    <g transform="matrix(2.06393,0.0491033,-0.0491333,2.06519,-360.663,-223.095)">
        <ellipse cx="276.058" cy="174.468" rx="76.239" ry="30.305"/>
    </g>
    <g transform="matrix(0.945887,0,0,0.911846,13.4358,-4.23263)">
        <path d="M91.735,150.184C91.178,150.296 90.621,150.505 90.064,150.811C89.172,151.284 88.183,152.092 87.097,153.234C85.788,154.627 84.82,156.257 84.193,158.123C83.566,159.989 83.253,162.371 83.253,165.268L83.253,178.012C83.253,179.098 83.323,179.878 83.462,180.352C83.601,180.825 83.956,181.118 84.527,181.229C85.098,181.341 86.025,181.396 87.306,181.396L92.989,181.396L92.989,188.667L62.487,188.667L62.487,181.396L67.751,181.396C69.172,181.396 70.043,181.25 70.363,180.958C70.683,180.665 70.843,179.836 70.843,178.471L70.843,178.012L70.76,175.045L70.76,155.783C70.76,154.753 70.718,154.021 70.634,153.59C70.551,153.158 70.293,152.893 69.861,152.796C69.43,152.698 68.726,152.649 67.751,152.649L62.32,152.649L62.32,145.296L83.253,145.296L83.253,149.641C84.785,147.775 86.331,146.396 87.891,145.504C89.757,144.418 91.721,143.875 93.782,143.875C94.507,143.875 95.273,143.945 96.08,144.084C98.337,144.502 100.147,145.379 101.512,146.716C102.877,148.053 103.699,149.641 103.978,151.479C104.033,151.925 104.061,152.357 104.061,152.775C104.061,154.725 103.386,156.389 102.035,157.768C100.684,159.147 99.103,159.836 97.292,159.836L97.125,159.836C95.259,159.753 93.727,159.098 92.529,157.872C91.331,156.647 90.732,155.254 90.732,153.694C90.732,153.053 90.83,152.413 91.025,151.772L91.735,150.184Z" style="fill:white;fill-rule:nonzero;"/>
    </g>
    <g transform="matrix(0.945887,0,0,1.01492,59.1791,-20.5999)">
        <path d="M79.451,166.981L79.451,167.274C79.451,171.508 80.175,174.753 81.623,177.009C83.072,179.265 85.022,180.672 87.473,181.229C88.365,181.452 89.256,181.563 90.147,181.563C92.181,181.563 94.019,180.999 95.663,179.871C97.306,178.743 98.608,177.058 99.569,174.815C100.53,172.573 101.011,169.781 101.011,166.438L101.011,166.229C100.899,161.215 99.834,157.454 97.814,154.947C95.795,152.44 93.323,151.187 90.398,151.187C89.507,151.187 88.615,151.298 87.724,151.521C85.245,152.134 83.246,153.687 81.728,156.18C80.21,158.673 79.451,162.273 79.451,166.981ZM79.952,184.446L79.952,195.268C79.952,196.828 80.098,197.768 80.391,198.089C80.683,198.409 81.526,198.569 82.919,198.569L88.936,198.569L88.936,206.132L59.729,206.132L59.729,198.569L64.827,198.569C65.718,198.569 66.359,198.52 66.749,198.423C67.139,198.325 67.375,198.04 67.459,197.566C67.543,197.093 67.584,196.327 67.584,195.268L67.584,155.491C67.584,154.46 67.549,153.736 67.48,153.318C67.41,152.9 67.194,152.642 66.832,152.545C66.47,152.447 65.871,152.399 65.036,152.399L59.813,152.399L59.813,145.296L79.785,145.296L79.785,148.805C80.203,148.248 81.289,147.51 83.044,146.591C84.799,145.672 86.916,144.947 89.395,144.418C90.899,144.14 92.32,144 93.657,144C99.172,144 103.796,145.971 107.529,149.913C111.262,153.854 113.267,159.126 113.546,165.728L113.546,166.271C113.546,170.728 112.627,174.634 110.788,177.991C108.95,181.348 106.464,183.959 103.33,185.825C100.196,187.692 96.652,188.625 92.696,188.625C91.693,188.625 90.621,188.555 89.479,188.416C86.164,187.97 82.988,186.647 79.952,184.446Z" style="fill:white;fill-rule:nonzero;"/>
    </g>
    <g transform="matrix(0.899853,3.46945e-18,-3.46945e-18,0.946455,113.888,-10.538)">
        <path d="M62.278,188.667L62.278,181.396L67.919,181.396C69.228,181.396 70.029,181.25 70.321,180.958C70.614,180.665 70.76,179.85 70.76,178.513L70.76,178.012L70.676,175.129L70.676,153.903C70.648,153.374 70.488,153.018 70.196,152.837C69.903,152.656 69.311,152.566 68.42,152.566L62.696,152.566L62.696,145.212L83.169,145.212L83.169,178.012L83.253,179.516L83.253,180.101C83.253,180.658 83.357,181.013 83.566,181.166C83.775,181.32 84.256,181.396 85.008,181.396L90.565,181.396L90.565,188.667L62.278,188.667ZM68.295,132.134L68.295,132.008C68.295,130.198 69.019,128.568 70.467,127.12C71.916,125.671 73.699,124.864 75.816,124.696L76.15,124.696C78.183,124.696 80.036,125.421 81.707,126.869C82.487,127.566 83.079,128.38 83.483,129.313C83.887,130.247 84.089,131.173 84.089,132.092C84.089,133.011 83.901,133.924 83.525,134.829C83.149,135.734 82.584,136.535 81.832,137.231C81.136,137.983 80.272,138.561 79.242,138.965C78.211,139.369 77.167,139.571 76.108,139.571C73.963,139.571 72.125,138.812 70.593,137.294C69.061,135.776 68.295,134.056 68.295,132.134Z" style="fill:white;fill-rule:nonzero;"/>
    </g>
    <g transform="matrix(0.852436,3.46945e-18,0,0.851625,199.253,7.39691)">
        <path d="M57.891,148.179L57.891,140.449C58.336,140.477 58.684,140.497 58.935,140.511C59.186,140.525 59.367,140.539 59.478,140.553C59.59,140.567 59.687,140.574 59.771,140.574C60.467,140.574 61.15,140.504 61.818,140.365C64.576,139.892 66.735,138.68 68.295,136.73C69.855,134.78 70.899,131.883 71.428,128.039C71.512,127.566 71.561,127.057 71.575,126.514C71.589,125.971 71.595,125.24 71.595,124.32L79.576,124.32L79.576,140.449L93.573,140.449L93.573,148.179L79.576,148.179L79.576,173.081L79.66,175.421C79.66,176.675 79.799,177.664 80.077,178.388C80.44,179.307 80.955,179.99 81.623,180.435C82.292,180.881 83.044,181.104 83.88,181.104C84.66,181.104 85.37,180.853 86.011,180.352C87.264,179.627 88.03,177.622 88.309,174.335L88.309,168.611L95.997,168.611L95.997,174.126C95.997,178.834 94.723,182.511 92.174,185.157C89.625,187.803 86.011,189.126 81.331,189.126L81.122,189.126C71.038,189.182 65.997,183.221 65.997,171.243L65.997,148.179L57.891,148.179Z" style="fill:white;fill-rule:nonzero;"/>
    </g>
    <g transform="matrix(0.607108,0,-3.46945e-18,1.22744,183.972,-43.5408)">
        <rect x="60.815" y="124.32" width="9.944" height="64.346" style="fill:white;fill-rule:nonzero;"/>
    </g>
    <g transform="matrix(0.852436,3.46945e-18,0,0.914785,233.408,-5.43417)">
        <path d="M57.473,152.817L57.473,145.212L85.091,145.212L85.091,152.566L79.451,152.566C78.81,152.566 78.343,152.58 78.051,152.608C77.759,152.635 77.557,152.712 77.445,152.837C77.334,152.963 77.236,153.165 77.153,153.443C77.153,153.471 77.146,153.506 77.132,153.548C77.118,153.59 77.111,153.638 77.111,153.694C77.111,153.861 77.167,154.077 77.278,154.342C77.389,154.606 77.612,155.073 77.947,155.741L87.682,175.756L96.164,155.7C96.582,154.753 96.791,154.014 96.791,153.485C96.791,153.123 96.742,152.9 96.645,152.817C96.547,152.733 96.303,152.677 95.913,152.649L95.454,152.566L90.105,152.566L90.105,145.212L112.627,145.212L112.627,152.566L108.03,152.566C107.668,152.594 107.355,152.677 107.09,152.817C106.826,152.956 106.561,153.22 106.296,153.61C106.032,154 105.691,154.571 105.273,155.324C105.161,155.491 105.078,155.672 105.022,155.867C104.966,155.978 104.897,156.103 104.813,156.243L90.649,188.667L80.37,188.667L64.743,156.493C64.409,155.825 64.109,155.289 63.845,154.885C63.58,154.481 63.281,154.154 62.946,153.903C62.445,153.457 62.027,153.165 61.693,153.025C61.359,152.886 60.955,152.817 60.481,152.817L57.473,152.817Z" style="fill:white;fill-rule:nonzero;"/>
    </g>
</svg>
